# xmcd
#
# Track frame offsets: 
#        150
#        23571
#        40140
#        70233
#        90840
#        99302
#        120188
#        151754
#        159649
#        171168
#        186299
#        202984
#
# Disc length: 2976 seconds
#
# Revision: 0
# Processed by: cddbd v1.5.2PL0 Copyright (c) Steve Scherf et al.
# Submitted via: ExactAudioCopyFreeDBPlugin 1.0
#
DISCID=830b9e0c
DTITLE=Mount Meru - Arbres
DYEAR=2014
DGENRE=Chanson
TTITLE0=Arbre II
TTITLE1=Le Bonheur
TTITLE2=Dormez bien
TTITLE3=Le progrès (est une idée saugrenue)
TTITLE4=Quercus
TTITLE5=Mission
TTITLE6=L'ennui
TTITLE7=Le vent qui nous raconte l'histoire
TTITLE8=Que la terre lui a chuchoté
TTITLE9=La poésie du mécréant
TTITLE10=Sous verre
TTITLE11=Arbre
EXTD=
EXTT0=
EXTT1=
EXTT2=
EXTT3=
EXTT4=
EXTT5=
EXTT6=
EXTT7=
EXTT8=
EXTT9=
EXTT10=
EXTT11=
PLAYORDER=
